<svg aria-hidden="true" style="position: absolute; width: 0; height: 0; overflow: hidden;" version="1.1" xmlns="http://www.w3.org/2000/svg" xmlns:xlink="http://www.w3.org/1999/xlink">
<defs>
<symbol id="icon-close" viewBox="0 0 32 32">
<path d="M29 2h-26c-1.656 0-3 1.344-3 3v22c0 1.656 1.344 3 3 3h26c1.656 0 3-1.344 3-3v-22c0-1.656-1.344-3-3-3zM29 26.625c0 0.206-0.169 0.375-0.375 0.375h-25.25c-0.206 0-0.375-0.169-0.375-0.375v-21.25c0-0.206 0.169-0.375 0.375-0.375h25.25c0.206 0 0.375 0.169 0.375 0.375v21.25zM22.281 12.162l-3.837 3.838 3.837 3.837c0.288 0.288 0.288 0.756 0 1.050l-1.394 1.394c-0.288 0.288-0.756 0.288-1.050 0l-3.838-3.837-3.838 3.837c-0.287 0.288-0.756 0.288-1.050 0l-1.394-1.394c-0.287-0.288-0.287-0.756 0-1.050l3.838-3.838-3.838-3.838c-0.287-0.287-0.287-0.756 0-1.050l1.394-1.394c0.287-0.287 0.756-0.287 1.050 0l3.838 3.838 3.838-3.838c0.288-0.287 0.756-0.287 1.050 0l1.394 1.394c0.294 0.287 0.294 0.756 0 1.050z"></path>
</symbol>
<symbol id="icon-envelope" viewBox="0 0 32 32">
<path d="M29 4h-26c-1.657 0-3 1.343-3 3v18c0 1.657 1.343 3 3 3h26c1.657 0 3-1.343 3-3v-18c0-1.657-1.343-3-3-3zM29 7v2.55c-1.401 1.141-3.636 2.916-8.412 6.656-1.053 0.828-3.138 2.817-4.588 2.794-1.45 0.023-3.536-1.966-4.588-2.794-4.775-3.739-7.010-5.514-8.412-6.656v-2.55h26zM3 25v-11.6c1.432 1.141 3.463 2.741 6.559 5.165 1.366 1.075 3.758 3.449 6.441 3.435 2.67 0.014 5.032-2.325 6.441-3.434 3.096-2.424 5.127-4.025 6.559-5.166v11.6h-26z"></path>
</symbol>
<symbol id="icon-github" viewBox="0 0 28 32">
<path d="M25 2h-22c-1.656 0-3 1.344-3 3v22c0 1.656 1.344 3 3 3h22c1.656 0 3-1.344 3-3v-22c0-1.656-1.344-3-3-3zM17.331 25.981c-0.525 0.094-0.719-0.231-0.719-0.5 0-0.337 0.012-2.063 0.012-3.456 0-0.975-0.325-1.594-0.706-1.919 2.313-0.256 4.75-0.575 4.75-4.569 0-1.137-0.406-1.706-1.069-2.438 0.106-0.269 0.462-1.375-0.106-2.813-0.869-0.269-2.856 1.119-2.856 1.119-0.825-0.231-1.719-0.35-2.6-0.35s-1.775 0.119-2.6 0.35c0 0-1.988-1.387-2.856-1.119-0.569 1.431-0.219 2.537-0.106 2.813-0.662 0.731-0.975 1.3-0.975 2.438 0 3.975 2.331 4.313 4.644 4.569-0.3 0.269-0.569 0.731-0.662 1.394-0.594 0.269-2.112 0.731-3.019-0.869-0.569-0.988-1.594-1.069-1.594-1.069-1.013-0.012-0.069 0.637-0.069 0.637 0.675 0.313 1.15 1.512 1.15 1.512 0.606 1.856 3.506 1.231 3.506 1.231 0 0.869 0.012 2.281 0.012 2.538 0 0.269-0.188 0.594-0.719 0.5-4.125-1.381-7.013-5.306-7.013-9.894 0-5.738 4.388-10.094 10.125-10.094s10.387 4.356 10.387 10.094c0.006 4.587-2.794 8.519-6.919 9.894zM11.2 22.163c-0.119 0.025-0.231-0.025-0.244-0.106-0.012-0.094 0.069-0.175 0.188-0.2 0.119-0.012 0.231 0.038 0.244 0.119 0.019 0.081-0.063 0.163-0.188 0.188zM10.606 22.106c0 0.081-0.094 0.15-0.219 0.15-0.137 0.012-0.231-0.056-0.231-0.15 0-0.081 0.094-0.15 0.219-0.15 0.119-0.012 0.231 0.056 0.231 0.15zM9.75 22.038c-0.025 0.081-0.15 0.119-0.256 0.081-0.119-0.025-0.2-0.119-0.175-0.2s0.15-0.119 0.256-0.094c0.125 0.038 0.206 0.131 0.175 0.212zM8.981 21.7c-0.056 0.069-0.175 0.056-0.269-0.038-0.094-0.081-0.119-0.2-0.056-0.256 0.056-0.069 0.175-0.056 0.269 0.038 0.081 0.081 0.113 0.206 0.056 0.256zM8.412 21.131c-0.056 0.038-0.162 0-0.231-0.094s-0.069-0.2 0-0.244c0.069-0.056 0.175-0.012 0.231 0.081 0.069 0.094 0.069 0.206 0 0.256zM8.006 20.525c-0.056 0.056-0.15 0.025-0.219-0.038-0.069-0.081-0.081-0.175-0.025-0.219 0.056-0.056 0.15-0.025 0.219 0.038 0.069 0.081 0.081 0.175 0.025 0.219zM7.588 20.063c-0.025 0.056-0.106 0.069-0.175 0.025-0.081-0.038-0.119-0.106-0.094-0.163 0.025-0.038 0.094-0.056 0.175-0.025 0.081 0.044 0.119 0.113 0.094 0.163z"></path>
</symbol>
<symbol id="icon-linkedin" viewBox="0 0 28 32">
<path d="M26 2h-24.006c-1.1 0-1.994 0.906-1.994 2.019v23.962c0 1.113 0.894 2.019 1.994 2.019h24.006c1.1 0 2-0.906 2-2.019v-23.962c0-1.112-0.9-2.019-2-2.019zM8.463 26h-4.15v-13.363h4.156v13.363zM6.388 10.813c-1.331 0-2.406-1.081-2.406-2.406s1.075-2.406 2.406-2.406c1.325 0 2.406 1.081 2.406 2.406 0 1.331-1.075 2.406-2.406 2.406zM24.019 26h-4.15v-6.5c0-1.55-0.031-3.544-2.156-3.544-2.162 0-2.494 1.688-2.494 3.431v6.613h-4.15v-13.363h3.981v1.825h0.056c0.556-1.050 1.912-2.156 3.931-2.156 4.2 0 4.981 2.769 4.981 6.369v7.325z"></path>
</symbol>
<symbol id="icon-play" viewBox="0 0 28 32">
<path d="M26.525 13.419l-22-13.006c-1.788-1.056-4.525-0.031-4.525 2.581v26.006c0 2.344 2.544 3.756 4.525 2.581l22-13c1.962-1.156 1.969-4.006 0-5.162z"></path>
</symbol>
<symbol id="icon-phone" viewBox="0 0 32 32">
<path d="M30.266 20.625l-6.349-2.722c-0.331-0.145-0.716-0.229-1.122-0.229-0.89 0-1.686 0.406-2.211 1.043l-0.004 0.005-2.044 2.5c-3.295-1.82-5.94-4.463-7.711-7.658l-0.051-0.1 2.5-2.044c0.642-0.53 1.047-1.326 1.047-2.217 0-0.405-0.084-0.791-0.236-1.141l0.007 0.019-2.717-6.345c-0.446-1.030-1.453-1.737-2.625-1.737-0.229 0-0.451 0.027-0.664 0.078l0.019-0.004-5.887 1.357c-1.28 0.298-2.219 1.429-2.219 2.779 0 0.003 0 0.007 0 0.010v-0c0 15.391 12.48 27.788 27.785 27.781 0.003 0 0.006 0 0.009 0 1.35 0 2.481-0.939 2.775-2.2l0.004-0.019 1.356-5.889c0.046-0.192 0.072-0.412 0.072-0.638 0-1.173-0.706-2.181-1.716-2.622l-0.018-0.007zM27.666 29.006c-13.599-0.063-24.604-11.068-24.666-24.674l5.668-1.306 2.631 6.139-4.256 3.482c2.899 6.187 6.137 9.414 12.313 12.312l3.481-4.257 6.137 2.632z"></path>
</symbol>
<symbol id="icon-telegram" viewBox="0 0 28 32">
<path d="M27.919 6.162l-4.225 19.925c-0.319 1.406-1.15 1.756-2.331 1.094l-6.438-4.744-3.106 2.988c-0.344 0.344-0.631 0.631-1.294 0.631l0.463-6.556 11.931-10.781c0.519-0.463-0.113-0.719-0.806-0.256l-14.75 9.287-6.35-1.988c-1.381-0.431-1.406-1.381 0.288-2.044l24.837-9.569c1.15-0.431 2.156 0.256 1.781 2.013z"></path>
</symbol>
</defs>
</svg>
